<svg xmlns="http://www.w3.org/2000/svg" viewBox="0 0 512 512">
    <path d="M444.9 109.8L338.2 3.1c-2-2-4.7-3.1-7.5-3.1h-224C83.1 0 64 19.1 64 42.7v426.7c0 23.5 19.1 42.7 42.7 42.7h298.7c23.5 0 42.7-19.1 42.7-42.7v-352c-.1-2.9-1.2-5.6-3.2-7.6zM341.3 36.4l70.2 70.2h-48.9c-11.8 0-21.3-9.6-21.3-21.3V36.4zm85.4 432.9c0 11.8-9.6 21.3-21.3 21.3H106.7c-11.8 0-21.3-9.6-21.3-21.3V42.7c0-11.8 9.6-21.3 21.3-21.3H320v64c0 23.5 19.1 42.7 42.7 42.7h64v341.2z"/>
    <path d="M373.3 298.7H138.7c-5.9 0-10.7 4.8-10.7 10.7s4.8 10.7 10.7 10.7h234.7c5.9 0 10.7-4.8 10.7-10.7-.1-6-4.9-10.7-10.8-10.7zM373.3 234.7H138.7c-5.9 0-10.7 4.8-10.7 10.7 0 5.9 4.8 10.7 10.7 10.7h234.7c5.9 0 10.7-4.8 10.7-10.7-.1-6-4.9-10.7-10.8-10.7zM373.3 362.7H138.7c-5.9 0-10.7 4.8-10.7 10.7s4.8 10.7 10.7 10.7h234.7c5.9 0 10.7-4.8 10.7-10.7-.1-6-4.9-10.7-10.8-10.7zM266.7 426.7h-128c-5.9 0-10.7 4.8-10.7 10.7s4.8 10.7 10.7 10.7h128c5.9 0 10.7-4.8 10.7-10.7-.1-6-4.8-10.7-10.7-10.7zM234.7 181.3c0 5.9 4.8 10.7 10.7 10.7h128c5.9 0 10.7-4.8 10.7-10.7s-4.8-10.7-10.7-10.7h-128c-6 .1-10.7 4.8-10.7 10.7z"/>
</svg>
