<svg xmlns="http://www.w3.org/2000/svg" width="36.016" height="34.444" viewBox="0 0 36.016 34.444">
    <defs>
        <style>
            .cls-1{opacity:.8}.cls-2,.cls-3{fill:#fff}.cls-3{font-size:10px;font-family:Roboto-Regular,Roboto}
        </style>
    </defs>
    <g id="RFx" class="cls-1" transform="translate(0 -1.222)">
        <path id="Path_27" d="M49.3 47.17l-4.37-4.37 4.17-2.085-11.344-4.181 4.179 11.343 2.084-4.169 4.372 4.371a.643.643 0 0 0 .909-.909zm-9.373-8.47l5.938 2.188-2.5 1.25-1.25 2.5z" class="cls-2" data-name="Path 27" transform="translate(-13.474 -12.601)"/>
        <path id="Path_28" d="M6.573 5.222a2.573 2.573 0 1 0 2.572 2.573 2.575 2.575 0 0 0-2.572-2.573zm0 3.859a1.286 1.286 0 1 1 1.286-1.286 1.288 1.288 0 0 1-1.286 1.286z" class="cls-2" data-name="Path 28" transform="translate(-1.427 -1.427)"/>
        <path id="Path_29" d="M15.573 5.222a2.573 2.573 0 1 0 2.573 2.573 2.575 2.575 0 0 0-2.573-2.573zm0 3.859a1.286 1.286 0 1 1 1.286-1.286 1.288 1.288 0 0 1-1.286 1.286z" class="cls-2" data-name="Path 29" transform="translate(-4.639 -1.427)"/>
        <path id="Path_30" d="M24.573 5.222a2.573 2.573 0 1 0 2.573 2.573 2.575 2.575 0 0 0-2.573-2.573zm0 3.859a1.286 1.286 0 1 1 1.286-1.286 1.288 1.288 0 0 1-1.286 1.286z" class="cls-2" data-name="Path 30" transform="translate(-7.851 -1.427)"/>
        <path id="Path_31" d="M22.51 32.736H1.286V11.512h30.871v11.577a.643.643 0 1 0 1.286 0V2.508c0-.356-.018-1.252-1.286-1.184L.643 1.222A.643.643 0 0 0 0 1.865v31.514a.643.643 0 0 0 .643.643H22.51a.643.643 0 1 0 0-1.286zM1.286 2.508h30.871v7.718H1.286z" class="cls-2" data-name="Path 31"/>
        <text id="RFx-2" class="cls-3" data-name="RFx" transform="translate(6.001 23.229)">
            <tspan x="0" y="0">RFx</tspan>
        </text>
    </g>
</svg>
