<svg xmlns="http://www.w3.org/2000/svg" width="36.887" height="36.282" viewBox="0 0 36.887 36.282">
    <defs>
        <style>
            .cls-1{opacity:.8}.cls-2,.cls-3{fill:#fff}.cls-3{fill-rule:evenodd}
        </style>
    </defs>
    <g id="support_ticket" class="cls-1" data-name="support ticket" transform="translate(-91.569 -341.014)">
        <g id="inspection_check" data-name="inspection check" transform="translate(96.366 345.844)">
            <path id="Path_34" d="M26.6 13.21h10.892a.6.6 0 1 0 0-1.21H26.6a.6.6 0 1 0 0 1.21z" class="cls-2" data-name="Path 34" transform="translate(-14.81 -8.976)"/>
            <path id="Path_35" d="M26.6 27.21h10.892a.6.6 0 1 0 0-1.21H26.6a.6.6 0 1 0 0 1.21z" class="cls-2" data-name="Path 35" transform="translate(-14.81 -14.508)"/>
            <path id="Path_40" d="M26.6 27.21h2.3l.729-1.21H26.6a.6.6 0 1 0 0 1.21z" class="cls-2" data-name="Path 40" transform="translate(-11.786 -6.04)"/>
            <path id="Path_36" d="M14.558 7.212l-3.779 4.408-2.311-1.734a.6.6 0 1 0-.726.967l2.765 2.074a.6.6 0 0 0 .823-.091L15.477 8a.6.6 0 1 0-.919-.786z" class="cls-2" data-name="Path 36" transform="translate(-7.5 -7)"/>
            <path id="Path_37" d="M14.558 21.212l-3.779 4.408-2.311-1.734a.6.6 0 1 0-.726.967l2.765 2.074a.6.6 0 0 0 .823-.091L15.477 22a.6.6 0 1 0-.919-.786z" class="cls-2" data-name="Path 37" transform="translate(-7.5 -12.532)"/>
            <path id="Path_38" d="M14.558 36.212l-3.779 4.408-2.311-1.734a.6.6 0 1 0-.726.967l2.765 2.074a.6.6 0 0 0 .823-.091L15.477 37a.6.6 0 1 0-.919-.786z" class="cls-2" data-name="Path 38" transform="translate(-7.5 -18.46)"/>
        </g>
        <g id="Settings" transform="translate(114.478 362.78)">
            <g id="Group_17" data-name="Group 17">
                <g id="Group_16" data-name="Group 16">
                    <g id="Group_15" data-name="Group 15">
                        <g id="Group_14" data-name="Group 14">
                            <g id="Group_13" data-name="Group 13">
                                <g id="Group_12" data-name="Group 12">
                                    <g id="Group_11" data-name="Group 11">
                                        <path id="Path_39" d="M6.989 4.289a2.969 2.969 0 1 0 2.958 2.969 2.963 2.963 0 0 0-2.958-2.969M8.222 0a.644.644 0 0 1 .206.033.677.677 0 0 1 .317.228.663.663 0 0 1 .1.2l.24.954a.722.722 0 0 0 .042.116.707.707 0 0 0 .217.263l.483.318.573.288a.663.663 0 0 0 .273.067h.015a.654.654 0 0 0 .229-.042l.756-.257a.679.679 0 0 1 .276-.059.651.651 0 0 1 .168.022.683.683 0 0 1 .4.3l1.306 2.2a.663.663 0 0 1 .079.2.68.68 0 0 1-.033.39.66.66 0 0 1-.118.189l-.694.7a.72.72 0 0 0-.078.1.712.712 0 0 0-.114.321l-.035.825.027.4a.658.658 0 0 0 .08.271.667.667 0 0 0 .158.191l.6.526a.678.678 0 0 1 .255.367.687.687 0 0 1-.06.5l-1.238 2.24a.662.662 0 0 1-.131.168.651.651 0 0 1-.575.16L11 11.917a.658.658 0 0 0-.122-.02h-.044a.71.71 0 0 0-.29.064l-.292.154.01.011-.967.6a.661.661 0 0 0-.295.431l-.18.78a.665.665 0 0 1-.664.58h-.002L5.6 14.471a.651.651 0 0 1-.209-.037.656.656 0 0 1-.409-.434l-.223-.959a.654.654 0 0 0-.04-.117.707.707 0 0 0-.211-.267l-.681-.464-.351-.187a.664.664 0 0 0-.272-.075h-.032a.657.657 0 0 0-.213.035L2.2 12.2a.678.678 0 0 1-.259.052.647.647 0 0 1-.186-.027.686.686 0 0 1-.391-.315L.117 9.675a.669.669 0 0 1-.074-.2.677.677 0 0 1 .044-.389.648.648 0 0 1 .124-.186l.713-.675a.673.673 0 0 0 .081-.093.712.712 0 0 0 .123-.318l.01-.143-.052-1.111a.661.661 0 0 0-.229-.467l-.59-.538a.678.678 0 0 1-.248-.372.689.689 0 0 1 .07-.5L1.373 2.47a.661.661 0 0 1 .134-.17.67.67 0 0 1 .356-.16.63.63 0 0 1 .077 0 .652.652 0 0 1 .145.016l.942.272a.639.639 0 0 0 .121.022h.058a.706.706 0 0 0 .277-.058l.735-.37.334-.216a.663.663 0 0 0 .287-.433L5.006.59a.665.665 0 0 1 .66-.59h2.556zM6.989 4.949a2.309 2.309 0 1 1-2.3 2.309 2.307 2.307 0 0 1 2.3-2.309zM8.219.66H5.666v.032l-.017.037-.165.776a1.323 1.323 0 0 1-.569.853l-.339.22-.03.019-.032.016-.5.249-.24.121-.019.01L3.74 3a1.355 1.355 0 0 1-.534.11h-.115a1.354 1.354 0 0 1-.238-.043l-.472-.136-.439-.131-.808 1.395-.476.822.024.018.027.032.276.251.31.282a1.322 1.322 0 0 1 .3.38 1.339 1.339 0 0 1 .149.543L1.8 7.639v.078l-.01.143v.042a1.381 1.381 0 0 1-.24.613 1.4 1.4 0 0 1-.159.185l-.14.132-.55.52 1.234 2.238.029-.012.036-.007.755-.233a1.314 1.314 0 0 1 .413-.067h.065a1.319 1.319 0 0 1 .543.149l.18.1.174.093.032.017.029.02.188.128.492.336.018.012.016.013a1.377 1.377 0 0 1 .408.517 1.391 1.391 0 0 1 .079.231l.1.424.117.5 1.224.023 1.328.023v-.031l.014-.038.179-.773a1.319 1.319 0 0 1 .584-.843L9.226 12l-.044-.046.769-.421.226-.119.066-.035.019-.01.019-.009a1.355 1.355 0 0 1 .558-.121h.087a1.3 1.3 0 0 1 .243.04l.914.243 1.239-2.241-.022-.018-.027-.03-.6-.522a1.323 1.323 0 0 1-.467-.917l-.013-.2-.013-.2V7.233l.031-.737v-.042a1.376 1.376 0 0 1 .222-.62 1.4 1.4 0 0 1 .153-.189l.341-.341.332-.332-1.307-2.2-.029.013-.039.008-.749.254a1.3 1.3 0 0 1-.447.079h-.03a1.308 1.308 0 0 1-.545-.132L9.537 2.7 9.5 2.686l-.033-.021-.262-.172-.222-.145-.017-.012-.016-.014a1.375 1.375 0 0 1-.416-.509 1.349 1.349 0 0 1-.083-.23l-.127-.507z" class="cls-3" data-name="Path 39"/>
                                    </g>
                                </g>
                            </g>
                        </g>
                    </g>
                </g>
            </g>
        </g>
        <path id="Path_41" d="M113.075 95.533l.68 1.134H98.181s-6.5-.151-6.578-6.653 0-19.884 0-19.884.68-5.9 6.578-6.048 20.262 0 20.262 0 5.746.454 5.9 6.048 0 15.5 0 15.5l-1.21-.832V70.886s.151-5.469-5.141-5.469H98.433a5.3 5.3 0 0 0-5.595 5.595c-.151 5.9 0 19.456 0 19.456s0 4.94 5.948 5.066 14.289-.001 14.289-.001z" class="cls-2" data-name="Path 41" transform="translate(0 277)"/>
    </g>
</svg>
